<svg width="963" height="217" viewBox="0 0 963 217" fill="none" xmlns="http://www.w3.org/2000/svg">
<path d="M93.5293 2.13281L168.358 214.535L189.232 216H122.216L144.433 214.535L128.686 162.411H49.2178L33.8369 214.535L71.4346 216H0.755859L31.7617 214.535L93.5293 2.13281ZM49.7061 160.946H128.197L84.6182 39.7305L49.7061 160.946ZM339.501 214.535C341.21 214.617 342.675 214.25 343.896 213.437C345.116 212.623 346.093 211.321 346.825 209.53C347.639 207.659 348.29 205.705 348.778 203.671C349.267 201.636 349.674 198.992 349.999 195.736C350.325 192.481 350.569 189.511 350.731 186.825C350.894 184.14 351.057 180.722 351.22 176.571C351.464 172.421 351.708 168.881 351.952 165.951C351.952 167.253 351.952 169.125 351.952 171.566C351.952 177.67 351.911 182.146 351.83 184.994C351.83 187.761 351.708 191.22 351.464 195.37C351.22 199.439 350.813 202.369 350.243 204.159C349.674 205.95 348.9 207.903 347.924 210.019C346.947 212.053 345.645 213.518 344.018 214.413C342.39 215.227 340.437 215.756 338.158 216C334.74 216.407 331.607 216.366 328.759 215.878C325.91 215.39 323.469 214.657 321.435 213.681C319.4 212.623 317.569 211.199 315.941 209.408C314.395 207.618 313.134 205.827 312.157 204.037C311.181 202.165 310.367 200.009 309.716 197.567C309.065 195.045 308.576 192.766 308.251 190.731C308.007 188.616 307.803 186.256 307.641 183.651C307.559 180.966 307.519 178.769 307.519 177.06C307.519 175.351 307.559 173.397 307.641 171.2C307.722 168.922 307.763 167.375 307.763 166.562V152.523C308.007 138.77 303.246 127.011 293.48 117.245C283.633 107.398 271.874 102.597 258.202 102.841H233.544V214.535L253.93 216H189.232L209.618 214.535V2.01074L189.232 0.545898H283.227C296.654 0.545898 308.292 5.14388 318.139 14.3398C327.986 23.4544 333.357 34.7256 334.252 48.1533C335.147 61.5811 331.363 73.5033 322.899 83.9199C314.436 94.2552 303.531 100.359 290.185 102.23C302.229 104.509 312.157 110.409 319.97 119.931C327.864 129.371 331.811 140.235 331.811 152.523V166.562C331.811 168.189 331.77 170.631 331.688 173.886C331.526 178.85 331.485 183.733 331.566 188.534C331.648 193.336 331.851 197.649 332.177 201.474C332.584 205.299 333.397 208.432 334.618 210.873C335.839 213.233 337.466 214.454 339.501 214.535ZM233.544 101.376L260.766 101.254C269.717 101.417 278.059 99.3008 285.79 94.9062C293.603 90.4303 299.747 84.3268 304.223 76.5957C308.78 68.8646 311.059 60.5638 311.059 51.6934C311.059 42.7415 308.78 34.4001 304.223 26.6689C299.747 18.9378 293.603 12.875 285.79 8.48047C278.059 4.00456 269.717 1.84798 260.766 2.01074H233.544V101.376ZM353.783 65.2432V0.545898H492.333V65.2432L491.967 48.8857C491.723 40.0153 490.095 32.1214 487.084 25.2041C484.154 18.2054 479.638 12.5902 473.534 8.3584C467.512 4.12663 460.31 2.01074 451.928 2.01074H435.082V214.535L455.468 216H390.771L411.156 214.535V2.01074H395.897C383.284 2.01074 373.233 6.44596 365.746 15.3164C358.34 24.1868 354.475 35.3766 354.149 48.8857L353.783 65.2432ZM558.861 0.545898L538.476 2.01074V214.535L558.861 216H494.164L514.55 214.535V2.01074L494.164 0.545898H558.861ZM584.618 52.4258C586.49 58.2852 589.786 63.9004 594.506 69.2715C599.307 74.5612 604.719 79.3219 610.741 83.5537C616.763 87.7041 623.233 91.8952 630.15 96.127C637.068 100.277 643.822 104.59 650.414 109.066C657.006 113.461 663.028 118.14 668.48 123.104C674.014 127.987 678.572 133.684 682.152 140.194C685.814 146.705 687.89 153.703 688.378 161.19C688.948 169.166 687.971 176.531 685.448 183.285C683.007 190.04 679.182 195.899 673.974 200.863C668.765 205.827 661.929 209.652 653.466 212.338C645.002 215.023 635.359 216.203 624.535 215.878C622.012 215.797 619.49 215.552 616.967 215.146C614.525 214.657 612.369 214.21 610.497 213.803C608.625 213.314 606.509 212.541 604.149 211.483C601.871 210.344 600.121 209.49 598.9 208.92C597.761 208.35 596.011 207.292 593.651 205.746C591.373 204.2 589.867 203.183 589.135 202.694C588.484 202.206 586.938 201.026 584.496 199.154C582.136 197.283 580.793 196.225 580.468 195.98C578.515 194.678 576.684 194.434 574.975 195.248C573.347 195.98 571.882 197.486 570.58 199.765C569.278 202.043 568.179 204.363 567.284 206.723C566.389 209.083 565.697 211.199 565.209 213.07L564.477 215.878V151.181C564.639 151.994 564.843 153.134 565.087 154.599C565.331 156.063 566.104 158.912 567.406 163.144C568.708 167.375 570.214 171.444 571.923 175.351C573.632 179.175 576.114 183.489 579.369 188.29C582.624 193.01 586.205 197.16 590.111 200.741C594.099 204.241 599.104 207.292 605.126 209.896C611.148 212.501 617.659 214.006 624.657 214.413C636.864 215.146 646.63 211.931 653.954 204.77C661.278 197.527 665.266 188.168 665.917 176.693C666.324 170.102 665.429 163.957 663.231 158.261C661.116 152.483 658.064 147.396 654.076 143.002C650.089 138.526 645.45 134.294 640.16 130.307C634.87 126.319 629.255 122.576 623.314 119.076C617.455 115.495 611.555 111.955 605.614 108.456C599.674 104.957 593.977 101.254 588.524 97.3477C583.153 93.4414 578.393 89.3724 574.242 85.1406C570.092 80.8275 566.755 75.904 564.232 70.3701C561.791 64.7549 560.57 58.7734 560.57 52.4258C560.57 37.2891 567.04 24.7972 579.979 14.9502C593 5.02181 609.439 0.220378 629.296 0.545898C637.19 0.220378 644.84 1.52246 652.245 4.45215C659.732 7.30046 666.324 11.4915 672.021 17.0254C674.787 19.4668 677.147 19.304 679.101 16.5371C681.135 13.7702 682.478 10.4336 683.129 6.52734L683.983 0.545898V59.8721C683.902 57.1865 683.658 54.501 683.251 51.8154C682.925 49.1299 682.234 45.7933 681.176 41.8057C680.199 37.818 678.897 34.1152 677.27 30.6973C675.723 27.1979 673.526 23.6579 670.678 20.0771C667.911 16.415 664.696 13.3226 661.034 10.7998C657.372 8.19564 652.774 6.07975 647.24 4.45215C641.788 2.82454 635.725 2.01074 629.052 2.01074C621.972 2.01074 615.502 2.90592 609.643 4.69629C603.865 6.48665 599.063 8.96875 595.238 12.1426C591.495 15.235 588.443 18.8971 586.083 23.1289C583.723 27.3607 582.502 31.9587 582.421 36.9229C582.34 41.887 583.072 47.0547 584.618 52.4258ZM692.162 65.2432V0.545898H830.712V65.2432L830.346 48.8857C830.102 40.0153 828.474 32.1214 825.463 25.2041C822.533 18.2054 818.017 12.5902 811.913 8.3584C805.891 4.12663 798.689 2.01074 790.307 2.01074H773.461V214.535L793.847 216H729.149L749.535 214.535V2.01074H734.276C721.662 2.01074 711.612 6.44596 704.125 15.3164C696.719 24.1868 692.854 35.3766 692.528 48.8857L692.162 65.2432ZM858.3 52.4258C860.172 58.2852 863.467 63.9004 868.188 69.2715C872.989 74.5612 878.401 79.3219 884.423 83.5537C890.445 87.7041 896.915 91.8952 903.832 96.127C910.749 100.277 917.504 104.59 924.096 109.066C930.688 113.461 936.71 118.14 942.162 123.104C947.696 127.987 952.253 133.684 955.834 140.194C959.496 146.705 961.571 153.703 962.06 161.19C962.629 169.166 961.653 176.531 959.13 183.285C956.688 190.04 952.864 195.899 947.655 200.863C942.447 205.827 935.611 209.652 927.147 212.338C918.684 215.023 909.04 216.203 898.217 215.878C895.694 215.797 893.171 215.552 890.648 215.146C888.207 214.657 886.05 214.21 884.179 213.803C882.307 213.314 880.191 212.541 877.831 211.483C875.552 210.344 873.803 209.49 872.582 208.92C871.443 208.35 869.693 207.292 867.333 205.746C865.054 204.2 863.549 203.183 862.816 202.694C862.165 202.206 860.619 201.026 858.178 199.154C855.818 197.283 854.475 196.225 854.149 195.98C852.196 194.678 850.365 194.434 848.656 195.248C847.029 195.98 845.564 197.486 844.262 199.765C842.96 202.043 841.861 204.363 840.966 206.723C840.071 209.083 839.379 211.199 838.891 213.07L838.158 215.878V151.181C838.321 151.994 838.524 153.134 838.769 154.599C839.013 156.063 839.786 158.912 841.088 163.144C842.39 167.375 843.896 171.444 845.604 175.351C847.313 179.175 849.796 183.489 853.051 188.29C856.306 193.01 859.887 197.16 863.793 200.741C867.781 204.241 872.785 207.292 878.808 209.896C884.83 212.501 891.34 214.006 898.339 214.413C910.546 215.146 920.312 211.931 927.636 204.77C934.96 197.527 938.948 188.168 939.599 176.693C940.006 170.102 939.11 163.957 936.913 158.261C934.797 152.483 931.745 147.396 927.758 143.002C923.77 138.526 919.132 134.294 913.842 130.307C908.552 126.319 902.937 122.576 896.996 119.076C891.137 115.495 885.237 111.955 879.296 108.456C873.355 104.957 867.659 101.254 862.206 97.3477C856.835 93.4414 852.074 89.3724 847.924 85.1406C843.773 80.8275 840.437 75.904 837.914 70.3701C835.473 64.7549 834.252 58.7734 834.252 52.4258C834.252 37.2891 840.722 24.7972 853.661 14.9502C866.682 5.02181 883.121 0.220378 902.978 0.545898C910.871 0.220378 918.521 1.52246 925.927 4.45215C933.414 7.30046 940.006 11.4915 945.702 17.0254C948.469 19.4668 950.829 19.304 952.782 16.5371C954.817 13.7702 956.16 10.4336 956.811 6.52734L957.665 0.545898V59.8721C957.584 57.1865 957.34 54.501 956.933 51.8154C956.607 49.1299 955.915 45.7933 954.857 41.8057C953.881 37.818 952.579 34.1152 950.951 30.6973C949.405 27.1979 947.208 23.6579 944.359 20.0771C941.592 16.415 938.378 13.3226 934.716 10.7998C931.054 8.19564 926.456 6.07975 920.922 4.45215C915.469 2.82454 909.407 2.01074 902.733 2.01074C895.653 2.01074 889.184 2.90592 883.324 4.69629C877.546 6.48665 872.745 8.96875 868.92 12.1426C865.176 15.235 862.125 18.8971 859.765 23.1289C857.405 27.3607 856.184 31.9587 856.103 36.9229C856.021 41.887 856.754 47.0547 858.3 52.4258Z" fill="#0E0905"/>
</svg>
