<svg width="1284" height="223" viewBox="0 0 1284 223" fill="none" xmlns="http://www.w3.org/2000/svg">
<path d="M136.986 0.545898H138.573V65.2432L138.207 52.1816C137.882 37.6146 133.812 25.611 126 16.1709C118.188 6.73079 107.527 2.01074 94.0176 2.01074H45.0674V109.311H76.6836C85.3099 109.311 92.7562 106.34 99.0225 100.399C105.289 94.4587 108.625 87.1344 109.032 78.4268L109.154 76.9619V141.659C108.747 133.033 105.411 125.749 99.1445 119.809C92.8783 113.786 85.3913 110.775 76.6836 110.775H45.0674V214.535H94.0176C107.527 214.535 118.188 209.815 126 200.375C133.812 190.935 137.882 178.931 138.207 164.364L138.573 151.303V216H0.755859L21.1416 214.535V2.01074L0.755859 0.545898H136.986ZM226.22 98.0801L279.809 214.535L301.537 216H236.84L255.883 214.535L214.745 125.302L177.147 214.535L210.351 216H145.653L175.683 214.535L214.013 123.593L157.982 2.01074L138.451 0.545898H203.148L182.03 2.01074L225.487 96.3711L265.16 2.01074L231.225 0.545898H295.922L266.625 2.01074L226.22 98.0801ZM467.553 0.545898L447.167 2.01074V214.535L467.553 216H402.855L423.241 214.535V110.775H345.849V214.535L366.234 216H301.537L321.923 214.535V2.01074L301.537 0.545898H366.234L345.849 2.01074V109.311H423.241V2.01074L402.855 0.545898H467.553ZM532.25 0.545898L511.864 2.01074V214.535L532.25 216H467.553L487.938 214.535V2.01074L467.553 0.545898H532.25ZM635.521 101.254C645.857 101.173 655.5 103.695 664.452 108.822C673.404 113.868 680.484 120.867 685.692 129.818C690.901 138.689 693.505 148.292 693.505 158.627C693.505 168.881 690.901 178.484 685.692 187.436C680.484 196.387 673.404 203.427 664.452 208.554C655.5 213.599 645.857 216.081 635.521 216H532.25L552.636 214.535V2.01074L532.25 0.545898H616.967C631.046 0.545898 643.09 5.55078 653.1 15.5605C663.109 25.5703 668.114 37.6146 668.114 51.6934C668.114 63.4935 664.452 73.9915 657.128 83.1875C649.885 92.3835 640.526 98.4056 629.052 101.254H635.521ZM594.506 2.01074H576.562V101.254H594.506C603.458 101.417 611.799 99.3008 619.53 94.9062C627.343 90.4303 633.487 84.3268 637.963 76.5957C642.52 68.8646 644.799 60.5638 644.799 51.6934C644.799 42.7415 642.52 34.4001 637.963 26.6689C633.487 18.9378 627.343 12.875 619.53 8.48047C611.799 4.00456 603.458 1.84798 594.506 2.01074ZM661.4 186.703C666.446 178.077 668.969 168.718 668.969 158.627C668.969 148.536 666.446 139.218 661.4 130.673C656.436 122.047 649.641 115.251 641.015 110.287C632.47 105.323 623.152 102.841 613.061 102.841H576.562V214.535H613.061C623.152 214.535 632.47 212.053 641.015 207.089C649.641 202.043 656.436 195.248 661.4 186.703ZM760.033 0.545898L739.647 2.01074V214.535L760.033 216H695.336L715.722 214.535V2.01074L695.336 0.545898H760.033ZM761.742 65.2432V0.545898H900.292V65.2432L899.926 48.8857C899.682 40.0153 898.054 32.1214 895.043 25.2041C892.113 18.2054 887.597 12.5902 881.493 8.3584C875.471 4.12663 868.269 2.01074 859.887 2.01074H843.041V214.535L863.427 216H798.729L819.115 214.535V2.01074H803.856C791.243 2.01074 781.192 6.44596 773.705 15.3164C766.299 24.1868 762.434 35.3766 762.108 48.8857L761.742 65.2432ZM966.82 0.545898L946.435 2.01074V214.535L966.82 216H902.123L922.509 214.535V2.01074L902.123 0.545898H966.82ZM1003.69 15.4385C1014.59 5.51009 1026.43 0.545898 1039.21 0.545898C1051.98 0.545898 1063.78 5.51009 1074.61 15.4385C1085.51 25.2855 1094.1 38.7132 1100.37 55.7217C1106.71 72.7301 1109.89 91.2441 1109.89 111.264C1109.89 126.319 1108.01 140.683 1104.27 154.354C1100.53 168.026 1095.48 179.826 1089.13 189.755C1082.87 199.602 1075.38 207.455 1066.67 213.314C1057.97 219.174 1048.81 222.104 1039.21 222.104C1029.61 222.104 1020.45 219.174 1011.74 213.314C1003.03 207.455 995.507 199.602 989.159 189.755C982.893 179.826 977.888 168.026 974.145 154.354C970.401 140.683 968.529 126.319 968.529 111.264C968.529 91.2441 971.662 72.7301 977.929 55.7217C984.276 38.7132 992.862 25.2855 1003.69 15.4385ZM1039.09 220.883H1038.96C1047.35 220.883 1055.12 216 1062.28 206.234C1069.44 196.469 1075.1 183.204 1079.25 166.439C1083.4 149.594 1085.47 131.283 1085.47 111.508C1085.47 91.7324 1083.4 73.4626 1079.25 56.6982C1075.1 39.8525 1069.44 26.5469 1062.28 16.7812C1055.2 7.01562 1047.47 2.13281 1039.09 2.13281C1030.7 2.13281 1022.93 7.01562 1015.77 16.7812C1008.61 26.5469 1002.95 39.8525 998.803 56.6982C994.652 73.4626 992.577 91.7324 992.577 111.508C992.577 131.283 994.652 149.594 998.803 166.439C1002.95 183.204 1008.61 196.469 1015.77 206.234C1022.93 216 1030.7 220.883 1039.09 220.883ZM1283.47 0.545898L1251.85 2.01074V214.535L1283.47 216H1226.46L1144.92 2.49902V214.535L1176.54 216H1111.84L1143.46 214.535V2.01074L1111.84 0.545898H1168.11L1250.39 214.535V2.01074L1218.77 0.545898H1283.47Z" fill="#0E0905"/>
</svg>
