<svg width="1773" height="223" viewBox="0 0 1773 223" fill="none" xmlns="http://www.w3.org/2000/svg">
<path d="M87.3037 0.545898C99.5107 0.545898 110.741 3.55697 120.995 9.5791C131.249 15.5199 139.346 23.6172 145.287 33.8711C151.309 44.125 154.32 55.3555 154.32 67.5625C154.32 79.7695 151.309 91.0407 145.287 101.376C139.346 111.63 131.249 119.768 120.995 125.79C110.741 131.731 99.5107 134.701 87.3037 134.701H45.0674V214.535L65.4531 216H0.755859L21.1416 214.535V2.01074L0.755859 0.545898H87.3037ZM127.831 93.1973C129.54 85.5475 130.395 77.0026 130.395 67.5625C130.395 58.1224 129.54 49.5775 127.831 41.9277C126.122 34.278 123.437 27.4014 119.774 21.2979C116.112 15.1943 111.067 10.4743 104.638 7.1377C98.2087 3.71973 90.5996 2.01074 81.8105 2.01074H45.0674V133.114H81.8105C90.5996 133.114 98.2087 131.446 104.638 128.109C111.067 124.691 116.112 119.931 119.774 113.827C123.437 107.724 126.122 100.847 127.831 93.1973ZM322.289 0.545898L301.903 2.01074V214.535L322.289 216H257.592L277.978 214.535V110.775H200.585V214.535L220.971 216H156.273L176.659 214.535V2.01074L156.273 0.545898H220.971L200.585 2.01074V109.311H277.978V2.01074L257.592 0.545898H322.289ZM359.154 15.4385C370.059 5.51009 381.9 0.545898 394.677 0.545898C407.453 0.545898 419.254 5.51009 430.077 15.4385C440.982 25.2855 449.568 38.7132 455.834 55.7217C462.182 72.7301 465.355 91.2441 465.355 111.264C465.355 126.319 463.484 140.683 459.74 154.354C455.997 168.026 450.951 179.826 444.604 189.755C438.337 199.602 430.85 207.455 422.143 213.314C413.435 219.174 404.28 222.104 394.677 222.104C385.074 222.104 375.919 219.174 367.211 213.314C358.503 207.455 350.976 199.602 344.628 189.755C338.362 179.826 333.357 168.026 329.613 154.354C325.87 140.683 323.998 126.319 323.998 111.264C323.998 91.2441 327.131 72.7301 333.397 55.7217C339.745 38.7132 348.331 25.2855 359.154 15.4385ZM394.555 220.883H394.433C402.815 220.883 410.587 216 417.748 206.234C424.91 196.469 430.565 183.204 434.716 166.439C438.866 149.594 440.941 131.283 440.941 111.508C440.941 91.7324 438.866 73.4626 434.716 56.6982C430.565 39.8525 424.91 26.5469 417.748 16.7812C410.668 7.01562 402.937 2.13281 394.555 2.13281C386.173 2.13281 378.401 7.01562 371.239 16.7812C364.078 26.5469 358.422 39.8525 354.271 56.6982C350.121 73.4626 348.046 91.7324 348.046 111.508C348.046 131.283 350.121 149.594 354.271 166.439C358.422 183.204 364.078 196.469 371.239 206.234C378.401 216 386.173 220.883 394.555 220.883ZM469.018 65.2432V0.545898H607.567V65.2432L607.201 48.8857C606.957 40.0153 605.329 32.1214 602.318 25.2041C599.389 18.2054 594.872 12.5902 588.769 8.3584C582.746 4.12663 575.544 2.01074 567.162 2.01074H550.316V214.535L570.702 216H506.005L526.391 214.535V2.01074H511.132C498.518 2.01074 488.467 6.44596 480.98 15.3164C473.575 24.1868 469.709 35.3766 469.384 48.8857L469.018 65.2432ZM646.264 15.4385C657.169 5.51009 669.009 0.545898 681.786 0.545898C694.563 0.545898 706.363 5.51009 717.187 15.4385C728.091 25.2855 736.677 38.7132 742.943 55.7217C749.291 72.7301 752.465 91.2441 752.465 111.264C752.465 126.319 750.593 140.683 746.85 154.354C743.106 168.026 738.061 179.826 731.713 189.755C725.447 199.602 717.96 207.455 709.252 213.314C700.544 219.174 691.389 222.104 681.786 222.104C672.183 222.104 663.028 219.174 654.32 213.314C645.613 207.455 638.085 199.602 631.737 189.755C625.471 179.826 620.466 168.026 616.723 154.354C612.979 140.683 611.107 126.319 611.107 111.264C611.107 91.2441 614.241 72.7301 620.507 55.7217C626.854 38.7132 635.44 25.2855 646.264 15.4385ZM681.664 220.883H681.542C689.924 220.883 697.696 216 704.857 206.234C712.019 196.469 717.675 183.204 721.825 166.439C725.976 149.594 728.051 131.283 728.051 111.508C728.051 91.7324 725.976 73.4626 721.825 56.6982C717.675 39.8525 712.019 26.5469 704.857 16.7812C697.777 7.01562 690.046 2.13281 681.664 2.13281C673.282 2.13281 665.51 7.01562 658.349 16.7812C651.187 26.5469 645.531 39.8525 641.381 56.6982C637.23 73.4626 635.155 91.7324 635.155 111.508C635.155 131.283 637.23 149.594 641.381 166.439C645.531 183.204 651.187 196.469 658.349 206.234C665.51 216 673.282 220.883 681.664 220.883ZM903.344 86.7275L883.568 88.3145V216L881.127 214.657C875.43 211.402 869.327 209.612 862.816 209.286C856.387 208.961 850.162 210.1 844.14 212.704C838.443 215.227 832.665 216.366 826.806 216.122C814.029 216.122 802.188 211.321 791.283 201.718C780.46 192.034 771.874 178.931 765.526 162.411C759.26 145.891 756.127 127.906 756.127 108.456V108.212C756.127 88.762 759.26 70.777 765.526 54.2568C771.874 37.7367 780.46 24.6751 791.283 15.0723C802.188 5.38802 814.029 0.545898 826.806 0.545898C833.072 0.545898 838.565 1.52246 843.285 3.47559C848.005 5.42871 854.312 9.53841 862.206 15.8047C866.031 18.8971 869.53 18.5716 872.704 14.8281C875.878 11.0033 877.465 6.24251 877.465 0.545898H879.052V65.2432H877.465C877.465 56.6169 876 48.3568 873.07 40.4629C870.222 32.4876 866.438 25.7331 861.718 20.1992C856.998 14.6654 851.545 10.2708 845.36 7.01562C839.257 3.67904 833.031 2.01074 826.684 2.01074C817.65 2.01074 809.553 6.81217 802.392 16.415C795.312 25.9365 789.818 38.7539 785.912 54.8672C782.087 70.9805 780.175 88.762 780.175 108.212C780.175 127.662 782.087 145.484 785.912 161.679C789.818 177.792 795.312 190.65 802.392 200.253C809.553 209.774 817.65 214.535 826.684 214.535H827.05C836.409 214.372 844.831 210.873 852.318 204.037C859.805 197.201 863.549 189.267 863.549 180.233V88.3145L839.501 86.7275H903.344ZM1053.61 214.535C1055.32 214.617 1056.79 214.25 1058.01 213.437C1059.23 212.623 1060.2 211.321 1060.94 209.53C1061.75 207.659 1062.4 205.705 1062.89 203.671C1063.38 201.636 1063.78 198.992 1064.11 195.736C1064.44 192.481 1064.68 189.511 1064.84 186.825C1065.01 184.14 1065.17 180.722 1065.33 176.571C1065.58 172.421 1065.82 168.881 1066.06 165.951C1066.06 167.253 1066.06 169.125 1066.06 171.566C1066.06 177.67 1066.02 182.146 1065.94 184.994C1065.94 187.761 1065.82 191.22 1065.58 195.37C1065.33 199.439 1064.92 202.369 1064.35 204.159C1063.78 205.95 1063.01 207.903 1062.04 210.019C1061.06 212.053 1059.76 213.518 1058.13 214.413C1056.5 215.227 1054.55 215.756 1052.27 216C1048.85 216.407 1045.72 216.366 1042.87 215.878C1040.02 215.39 1037.58 214.657 1035.55 213.681C1033.51 212.623 1031.68 211.199 1030.05 209.408C1028.51 207.618 1027.25 205.827 1026.27 204.037C1025.29 202.165 1024.48 200.009 1023.83 197.567C1023.18 195.045 1022.69 192.766 1022.36 190.731C1022.12 188.616 1021.91 186.256 1021.75 183.651C1021.67 180.966 1021.63 178.769 1021.63 177.06C1021.63 175.351 1021.67 173.397 1021.75 171.2C1021.83 168.922 1021.87 167.375 1021.87 166.562V152.523C1022.12 138.77 1017.36 127.011 1007.59 117.245C997.745 107.398 985.985 102.597 972.313 102.841H947.655V214.535L968.041 216H903.344L923.729 214.535V2.01074L903.344 0.545898H997.338C1010.77 0.545898 1022.4 5.14388 1032.25 14.3398C1042.1 23.4544 1047.47 34.7256 1048.36 48.1533C1049.26 61.5811 1045.47 73.5033 1037.01 83.9199C1028.55 94.2552 1017.64 100.359 1004.3 102.23C1016.34 104.509 1026.27 110.409 1034.08 119.931C1041.97 129.371 1045.92 140.235 1045.92 152.523V166.562C1045.92 168.189 1045.88 170.631 1045.8 173.886C1045.64 178.85 1045.6 183.733 1045.68 188.534C1045.76 193.336 1045.96 197.649 1046.29 201.474C1046.69 205.299 1047.51 208.432 1048.73 210.873C1049.95 213.233 1051.58 214.454 1053.61 214.535ZM947.655 101.376L974.877 101.254C983.829 101.417 992.17 99.3008 999.901 94.9062C1007.71 90.4303 1013.86 84.3268 1018.33 76.5957C1022.89 68.8646 1025.17 60.5638 1025.17 51.6934C1025.17 42.7415 1022.89 34.4001 1018.33 26.6689C1013.86 18.9378 1007.71 12.875 999.901 8.48047C992.17 4.00456 983.829 1.84798 974.877 2.01074H947.655V101.376ZM1158.96 2.13281L1233.79 214.535L1254.66 216H1187.65L1209.86 214.535L1194.12 162.411H1114.65L1099.27 214.535L1136.86 216H1066.19L1097.19 214.535L1158.96 2.13281ZM1115.14 160.946H1193.63L1150.05 39.7305L1115.14 160.946ZM1341.21 0.545898C1353.42 0.545898 1364.65 3.55697 1374.9 9.5791C1385.16 15.5199 1393.25 23.6172 1399.19 33.8711C1405.22 44.125 1408.23 55.3555 1408.23 67.5625C1408.23 79.7695 1405.22 91.0407 1399.19 101.376C1393.25 111.63 1385.16 119.768 1374.9 125.79C1364.65 131.731 1353.42 134.701 1341.21 134.701H1298.97V214.535L1319.36 216H1254.66L1275.05 214.535V2.01074L1254.66 0.545898H1341.21ZM1381.74 93.1973C1383.45 85.5475 1384.3 77.0026 1384.3 67.5625C1384.3 58.1224 1383.45 49.5775 1381.74 41.9277C1380.03 34.278 1377.34 27.4014 1373.68 21.2979C1370.02 15.1943 1364.97 10.4743 1358.54 7.1377C1352.11 3.71973 1344.51 2.01074 1335.72 2.01074H1298.97V133.114H1335.72C1344.51 133.114 1352.11 131.446 1358.54 128.109C1364.97 124.691 1370.02 119.931 1373.68 113.827C1377.34 107.724 1380.03 100.847 1381.74 93.1973ZM1576.2 0.545898L1555.81 2.01074V214.535L1576.2 216H1511.5L1531.88 214.535V110.775H1454.49V214.535L1474.88 216H1410.18L1430.57 214.535V2.01074L1410.18 0.545898H1474.88L1454.49 2.01074V109.311H1531.88V2.01074L1511.5 0.545898H1576.2ZM1738.79 2.01074L1701.93 0.545898H1772.73L1741.72 2.01074L1688.26 140.561V214.535L1708.64 216H1643.94L1664.33 214.535V140.561L1597.07 2.01074L1576.2 0.545898H1640.89L1621 2.01074L1686.67 135.678L1738.79 2.01074Z" fill="#0E0905"/>
</svg>
