<svg width="1630" height="223" viewBox="0 0 1630 223" fill="none" xmlns="http://www.w3.org/2000/svg">
<path d="M24.5127 52.4258C26.3844 58.2852 29.6803 63.9004 34.4004 69.2715C39.2018 74.5612 44.6136 79.3219 50.6357 83.5537C56.6579 87.7041 63.1276 91.8952 70.0449 96.127C76.9622 100.277 83.7168 104.59 90.3086 109.066C96.9004 113.461 102.923 118.14 108.375 123.104C113.909 127.987 118.466 133.684 122.047 140.194C125.709 146.705 127.784 153.703 128.272 161.19C128.842 169.166 127.866 176.531 125.343 183.285C122.901 190.04 119.076 195.899 113.868 200.863C108.66 205.827 101.824 209.652 93.3604 212.338C84.8968 215.023 75.2533 216.203 64.4297 215.878C61.9069 215.797 59.3841 215.552 56.8613 215.146C54.4199 214.657 52.2633 214.21 50.3916 213.803C48.5199 213.314 46.404 212.541 44.0439 211.483C41.7653 210.344 40.0156 209.49 38.7949 208.92C37.6556 208.35 35.9059 207.292 33.5459 205.746C31.2673 204.2 29.7617 203.183 29.0293 202.694C28.3783 202.206 26.832 201.026 24.3906 199.154C22.0306 197.283 20.6878 196.225 20.3623 195.98C18.4092 194.678 16.5781 194.434 14.8691 195.248C13.2415 195.98 11.7767 197.486 10.4746 199.765C9.17253 202.043 8.07389 204.363 7.17871 206.723C6.28353 209.083 5.5918 211.199 5.10352 213.07L4.37109 215.878V151.181C4.53385 151.994 4.7373 153.134 4.98145 154.599C5.22559 156.063 5.9987 158.912 7.30078 163.144C8.60286 167.375 10.1084 171.444 11.8174 175.351C13.5264 179.175 16.0085 183.489 19.2637 188.29C22.5189 193.01 26.0996 197.16 30.0059 200.741C33.9935 204.241 38.9984 207.292 45.0205 209.896C51.0426 212.501 57.5531 214.006 64.5518 214.413C76.7588 215.146 86.5244 211.931 93.8486 204.77C101.173 197.527 105.16 188.168 105.812 176.693C106.218 170.102 105.323 163.957 103.126 158.261C101.01 152.483 97.9583 147.396 93.9707 143.002C89.9831 138.526 85.3444 134.294 80.0547 130.307C74.765 126.319 69.1497 122.576 63.209 119.076C57.3496 115.495 51.4495 111.955 45.5088 108.456C39.568 104.957 33.8714 101.254 28.4189 97.3477C23.0479 93.4414 18.2871 89.3724 14.1367 85.1406C9.98633 80.8275 6.64974 75.904 4.12695 70.3701C1.68555 64.7549 0.464844 58.7734 0.464844 52.4258C0.464844 37.2891 6.93457 24.7972 19.874 14.9502C32.8949 5.02181 49.3337 0.220378 69.1904 0.545898C77.0843 0.220378 84.734 1.52246 92.1396 4.45215C99.6266 7.30046 106.218 11.4915 111.915 17.0254C114.682 19.4668 117.042 19.304 118.995 16.5371C121.03 13.7702 122.372 10.4336 123.023 6.52734L123.878 0.545898V59.8721C123.797 57.1865 123.552 54.501 123.146 51.8154C122.82 49.1299 122.128 45.7933 121.07 41.8057C120.094 37.818 118.792 34.1152 117.164 30.6973C115.618 27.1979 113.421 23.6579 110.572 20.0771C107.805 16.415 104.591 13.3226 100.929 10.7998C97.2666 8.19564 92.6686 6.07975 87.1348 4.45215C81.6823 2.82454 75.6195 2.01074 68.9463 2.01074C61.8662 2.01074 55.3965 2.90592 49.5371 4.69629C43.7591 6.48665 38.9577 8.96875 35.1328 12.1426C31.3893 15.235 28.3376 18.8971 25.9775 23.1289C23.6175 27.3607 22.3968 31.9587 22.3154 36.9229C22.234 41.887 22.9665 47.0547 24.5127 52.4258ZM326.393 0.545898H370.704L350.318 2.01074V214.535L370.704 216H306.007L326.393 214.535V5.79492L252.906 216L163.062 4.08594L163.795 214.535L195.045 216H130.348L162.33 214.535L161.598 2.01074L130.348 0.545898H185.523L262.428 180.6L326.393 0.545898ZM407.447 15.4385C418.352 5.51009 430.193 0.545898 442.97 0.545898C455.746 0.545898 467.547 5.51009 478.37 15.4385C489.275 25.2855 497.861 38.7132 504.127 55.7217C510.475 72.7301 513.648 91.2441 513.648 111.264C513.648 126.319 511.777 140.683 508.033 154.354C504.29 168.026 499.244 179.826 492.896 189.755C486.63 199.602 479.143 207.455 470.436 213.314C461.728 219.174 452.573 222.104 442.97 222.104C433.367 222.104 424.212 219.174 415.504 213.314C406.796 207.455 399.269 199.602 392.921 189.755C386.655 179.826 381.65 168.026 377.906 154.354C374.163 140.683 372.291 126.319 372.291 111.264C372.291 91.2441 375.424 72.7301 381.69 55.7217C388.038 38.7132 396.624 25.2855 407.447 15.4385ZM442.848 220.883H442.726C451.108 220.883 458.88 216 466.041 206.234C473.202 196.469 478.858 183.204 483.009 166.439C487.159 149.594 489.234 131.283 489.234 111.508C489.234 91.7324 487.159 73.4626 483.009 56.6982C478.858 39.8525 473.202 26.5469 466.041 16.7812C458.961 7.01562 451.23 2.13281 442.848 2.13281C434.465 2.13281 426.694 7.01562 419.532 16.7812C412.371 26.5469 406.715 39.8525 402.564 56.6982C398.414 73.4626 396.339 91.7324 396.339 111.508C396.339 131.283 398.414 149.594 402.564 166.439C406.715 183.204 412.371 196.469 419.532 206.234C426.694 216 434.465 220.883 442.848 220.883ZM552.467 15.4385C563.372 5.51009 575.213 0.545898 587.989 0.545898C600.766 0.545898 612.566 5.51009 623.39 15.4385C634.295 25.2855 642.88 38.7132 649.146 55.7217C655.494 72.7301 658.668 91.2441 658.668 111.264C658.668 126.319 656.796 140.683 653.053 154.354C649.309 168.026 644.264 179.826 637.916 189.755C631.65 199.602 624.163 207.455 615.455 213.314C606.747 219.174 597.592 222.104 587.989 222.104C578.386 222.104 569.231 219.174 560.523 213.314C551.816 207.455 544.288 199.602 537.94 189.755C531.674 179.826 526.669 168.026 522.926 154.354C519.182 140.683 517.311 126.319 517.311 111.264C517.311 91.2441 520.444 72.7301 526.71 55.7217C533.058 38.7132 541.643 25.2855 552.467 15.4385ZM587.867 220.883H587.745C596.127 220.883 603.899 216 611.061 206.234C618.222 196.469 623.878 183.204 628.028 166.439C632.179 149.594 634.254 131.283 634.254 111.508C634.254 91.7324 632.179 73.4626 628.028 56.6982C623.878 39.8525 618.222 26.5469 611.061 16.7812C603.98 7.01562 596.249 2.13281 587.867 2.13281C579.485 2.13281 571.713 7.01562 564.552 16.7812C557.39 26.5469 551.734 39.8525 547.584 56.6982C543.434 73.4626 541.358 91.7324 541.358 111.508C541.358 131.283 543.434 149.594 547.584 166.439C551.734 183.204 557.39 196.469 564.552 206.234C571.713 216 579.485 220.883 587.867 220.883ZM662.33 65.2432V0.545898H800.88V65.2432L800.514 48.8857C800.27 40.0153 798.642 32.1214 795.631 25.2041C792.701 18.2054 788.185 12.5902 782.081 8.3584C776.059 4.12663 768.857 2.01074 760.475 2.01074H743.629V214.535L764.015 216H699.317L719.703 214.535V2.01074H704.444C691.83 2.01074 681.78 6.44596 674.293 15.3164C666.887 24.1868 663.022 35.3766 662.696 48.8857L662.33 65.2432ZM968.727 0.545898L948.341 2.01074V214.535L968.727 216H904.029L924.415 214.535V110.775H847.022V214.535L867.408 216H802.711L823.097 214.535V2.01074L802.711 0.545898H867.408L847.022 2.01074V109.311H924.415V2.01074L904.029 0.545898H968.727ZM1264.62 0.545898H1308.94L1288.55 2.01074V214.535L1308.94 216H1244.24L1264.62 214.535V5.79492L1191.14 216L1101.29 4.08594L1102.03 214.535L1133.28 216H1068.58L1100.56 214.535L1099.83 2.01074L1068.58 0.545898H1123.76L1200.66 180.6L1264.62 0.545898ZM1401.59 2.13281L1476.42 214.535L1497.29 216H1430.27L1452.49 214.535L1436.74 162.411H1357.28L1341.9 214.535L1379.49 216H1308.81L1339.82 214.535L1401.59 2.13281ZM1357.76 160.946H1436.26L1392.68 39.7305L1357.76 160.946ZM1629.62 86.7275L1609.84 88.3145V216L1607.4 214.657C1601.7 211.402 1595.6 209.612 1589.09 209.286C1582.66 208.961 1576.43 210.1 1570.41 212.704C1564.71 215.227 1558.94 216.366 1553.08 216.122C1540.3 216.122 1528.46 211.321 1517.55 201.718C1506.73 192.034 1498.15 178.931 1491.8 162.411C1485.53 145.891 1482.4 127.906 1482.4 108.456V108.212C1482.4 88.762 1485.53 70.777 1491.8 54.2568C1498.15 37.7367 1506.73 24.6751 1517.55 15.0723C1528.46 5.38802 1540.3 0.545898 1553.08 0.545898C1559.34 0.545898 1564.84 1.52246 1569.56 3.47559C1574.28 5.42871 1580.58 9.53841 1588.48 15.8047C1592.3 18.8971 1595.8 18.5716 1598.98 14.8281C1602.15 11.0033 1603.74 6.24251 1603.74 0.545898H1605.32V65.2432H1603.74C1603.74 56.6169 1602.27 48.3568 1599.34 40.4629C1596.49 32.4876 1592.71 25.7331 1587.99 20.1992C1583.27 14.6654 1577.82 10.2708 1571.63 7.01562C1565.53 3.67904 1559.3 2.01074 1552.96 2.01074C1543.92 2.01074 1535.82 6.81217 1528.66 16.415C1521.58 25.9365 1516.09 38.7539 1512.18 54.8672C1508.36 70.9805 1506.45 88.762 1506.45 108.212C1506.45 127.662 1508.36 145.484 1512.18 161.679C1516.09 177.792 1521.58 190.65 1528.66 200.253C1535.82 209.774 1543.92 214.535 1552.96 214.535H1553.32C1562.68 214.372 1571.1 210.873 1578.59 204.037C1586.08 197.201 1589.82 189.267 1589.82 180.233V88.3145L1565.77 86.7275H1629.62Z" fill="#0E0905"/>
</svg>
